HIERARCHY
ROOT Hips
{
	OFFSET 0.00000 0.00000 0.00000
	CHANNELS 6 Xposition Yposition Zposition Zrotation Yrotation Xrotation 
	JOINT LHipJoint
	{
		OFFSET 0 0 0
		CHANNELS 3 Zrotation Yrotation Xrotation
		JOINT LeftHip
		{
			OFFSET 1.66553 -1.82942 0.76350
			CHANNELS 3 Zrotation Yrotation Xrotation
			JOINT LeftKnee
			{
				OFFSET 2.41740 -6.64177 0.00000
				CHANNELS 3 Zrotation Yrotation Xrotation
				JOINT LeftAnkle
				{
					OFFSET 2.71614 -7.46254 0.00000
					CHANNELS 3 Zrotation Yrotation Xrotation
					JOINT LeftToe
					{
						OFFSET 0.08005 -0.21993 1.82495
						CHANNELS 3 Zrotation Yrotation Xrotation
						End Site
						{
							OFFSET 0.00000 -0.00000 0.93441
						}
					}
				}
			}
		}
	}
	JOINT RHipJoint
	{
		OFFSET 0 0 0
		CHANNELS 3 Zrotation Yrotation Xrotation
		JOINT RightHip
		{
			OFFSET -1.63725 -1.82942 0.76350
			CHANNELS 3 Zrotation Yrotation Xrotation
			JOINT RightKnee
			{
				OFFSET -2.40538 -6.60872 0.00000
				CHANNELS 3 Zrotation Yrotation Xrotation
				JOINT RightAnkle
				{
					OFFSET -2.73312 -7.50919 0.00000
					CHANNELS 3 Zrotation Yrotation Xrotation
					JOINT RightToe
					{
						OFFSET -0.15567 -0.42769 1.93504
						CHANNELS 3 Zrotation Yrotation Xrotation
						End Site
						{
							OFFSET -0.00000 -0.00000 1.00100
						}
					}
				}
			}
		}
	}
	JOINT lowerback
	{
		OFFSET 0 0 0
		CHANNELS 3 Zrotation Yrotation Xrotation
		JOINT Chest
		{
			OFFSET 0.00326 2.30118 -0.13017
			CHANNELS 3 Zrotation Yrotation Xrotation
			JOINT Chest2
			{
				OFFSET 0.02887 2.30677 0.00834
				CHANNELS 3 Zrotation Yrotation Xrotation
				JOINT lowerneck
				{
					OFFSET 0 0 0
					CHANNELS 3 Zrotation Yrotation Xrotation
					JOINT Neck
					{
						OFFSET 0.12946 1.68326 0.00713
						CHANNELS 3 Zrotation Yrotation Xrotation
						JOINT Head
						{
							OFFSET -0.24364 1.67243 -0.16079
							CHANNELS 3 Zrotation Yrotation Xrotation
							End Site
							{
								OFFSET -0.09229 1.70819 -0.06383
							}
						}
					}
				}
				JOINT LeftCollar
				{
					OFFSET 0 0 0
					CHANNELS 3 Zrotation Yrotation Xrotation
					JOINT LeftShoulder
					{
						OFFSET 3.28104 0.69567 -0.00556
CHANNELS 3 Zrotation Xrotation Yrotation
						JOINT LeftElbow
						{
OFFSET 0 -5.707060 -0.000000
CHANNELS 3 Zrotation Xrotation Yrotation
							JOINT LeftWrist
							{
OFFSET 0 -3.332430 0.000000
CHANNELS 3 Zrotation Xrotation Yrotation
								JOINT lhand
								{
									OFFSET 0 0 0
CHANNELS 3 Zrotation Xrotation Yrotation
									JOINT LFingers
									{
OFFSET 0 -0.792690 0.000000
CHANNELS 3 Zrotation Xrotation Yrotation
										End Site
										{
OFFSET 0 -0.639090 0.000000
										}
									}
								}
								JOINT LThumb
								{
OFFSET 0 0.000000 0.000000
CHANNELS 3 Zrotation Xrotation Yrotation
									End Site
									{
OFFSET 0 -0.648840 0.648840
									}
								}
							}
						}
					}
				}
				JOINT RightCollar
				{
					OFFSET 0 0 0
					CHANNELS 3 Zrotation Yrotation Xrotation
					JOINT RightShoulder
					{
						OFFSET -3.40955 0.64424 0.14010
CHANNELS 3 Zrotation Xrotation Yrotation
						JOINT RightElbow
						{
OFFSET 0 -5.881760 -0.000000
CHANNELS 3 Zrotation Xrotation Yrotation
							JOINT RightWrist
							{
OFFSET 0 -3.281560 0.000000
CHANNELS 3 Zrotation Xrotation Yrotation
								JOINT rhand
								{
									OFFSET 0 0 0
CHANNELS 3 Zrotation Xrotation Yrotation
									JOINT RFingers
									{
OFFSET 0 -0.863130 0.000000
CHANNELS 3 Zrotation Xrotation Yrotation
										End Site
										{
OFFSET 0 -0.695870 0.000000
										}
									}
								}
								JOINT RThumb
								{
OFFSET 0 0.000000 0.000000
CHANNELS 3 Zrotation Xrotation Yrotation
									End Site
									{
OFFSET 0 -0.706500 0.706500
									}
								}
							}
						}
					}
				}
			}
		}
	}
}
MOTION
Frames: 7
Frame Time: 0.008333333333333333
14.693970 16.189375 -11.405561 -180.073748 -82.370974 536.741210 0.000000 0.000000 0.000000 -14.301626 20.373636 -27.102256 9.942129 17.377130 59.294654 3.748860 -3.171189 -35.989662 0.261058 -3.286952 -9.078554 0.000000 0.000000 0.000000 19.720574 -6.289525 -25.470571 -9.812197 -17.302854 58.858717 -3.205656 13.899717 -32.452225 -2.808777 -10.378477 30.211558 4.194895 -4.196409 10.425059 1.870154 -4.912066 -2.659343 0.531813 -2.556892 -8.884705 17.950597 10.991218 9.074362 -21.765228 15.410961 -8.140114 -9.775407 8.160187 -0.615980 0.000000 0.000000 0.000000 38.213986 16.757739 -90.025599 28.137923 -39.241023 10.211554 9.412863 6.346870 -6.885689 0.000000 0.000000 0.000000 -7.125000 0.000000 0.000000 -14.587985 36.606108 -3.093064 0.000000 0.000000 0.000000 -32.461148 9.696952 71.125949 -37.576332 -46.566357 -16.657323 16.889117 43.003865 -33.297956 0.000000 0.000000 0.000000 7.125000 0.000000 0.000000 26.409800 -1.615478 30.562343
14.501825 16.390935 -11.478011 -184.440244 -84.370528 539.625362 0.000000 0.000000 0.000000 -13.918244 20.991266 -22.888655 8.740188 16.636501 55.185598 3.411512 -3.749137 -34.143652 0.242108 -3.161506 -8.729086 0.000000 0.000000 0.000000 19.368229 -7.927262 -21.316567 -8.789710 -16.669615 55.358653 -3.253469 12.265664 -32.616523 -2.548507 -9.924211 28.732876 2.779474 -4.056616 7.192335 1.936108 -5.047988 -3.077637 1.161961 -2.567134 -7.330273 16.857719 10.179337 7.472671 -21.708540 14.068132 -6.732245 -9.513111 7.405576 -0.309720 0.000000 0.000000 0.000000 42.651908 10.054636 -87.612639 37.386720 -46.437985 16.521335 11.337536 5.872271 -7.999192 0.000000 0.000000 0.000000 -7.125000 0.000000 0.000000 -13.222003 37.826299 -2.385338 0.000000 0.000000 0.000000 -36.187547 9.878690 74.935096 -39.939580 -48.033927 -18.394350 17.259903 39.095254 -32.627651 0.000000 0.000000 0.000000 7.125000 0.000000 0.000000 26.643972 -1.012639 30.615537
14.170643 16.790028 -11.516608 -182.443881 -86.728422 537.201953 0.000000 0.000000 0.000000 -13.581219 20.347051 -16.704275 6.470964 14.869280 46.843041 3.043019 -3.404304 -32.230600 0.313591 -3.595162 -9.940888 0.000000 0.000000 0.000000 20.007822 -9.711215 -15.321360 -6.545846 -14.936966 47.134424 -3.123253 9.777580 -31.932471 -2.497051 -9.831471 28.433600 2.139071 -3.902392 1.648548 2.386647 -5.106579 -5.068637 1.649893 -2.612249 -6.154082 15.767560 9.651796 6.099198 -21.597394 13.040695 -6.484607 -9.271405 6.811321 -0.294911 0.000000 0.000000 0.000000 47.778085 4.217155 -85.209325 52.102086 -53.806114 27.862653 11.082799 4.802879 -8.346242 0.000000 0.000000 0.000000 -7.125000 0.000000 0.000000 -13.507140 38.152408 -2.328535 0.000000 0.000000 0.000000 -41.131197 7.572126 76.186339 -38.614860 -47.227334 -17.415654 18.017509 39.334004 -32.365920 0.000000 0.000000 0.000000 7.125000 0.000000 0.000000 27.029441 -0.811599 31.085142
13.847950 16.943104 -11.486104 -198.258255 -88.784815 551.375973 0.000000 0.000000 0.000000 -13.535139 19.571478 -10.108112 5.006601 13.391104 40.851047 2.926849 -3.449486 -31.573288 0.279760 -3.400476 -9.395876 0.000000 0.000000 0.000000 19.512945 -11.054034 -9.527044 -5.373499 -13.792441 42.412277 -3.277608 6.618159 -32.985746 -2.083119 -9.036925 25.910951 1.286683 -3.456431 -2.498567 2.030584 -4.728690 -6.769405 1.507394 -2.445975 -5.545889 15.870312 8.937663 5.809731 -22.372386 11.472035 -9.770530 -9.748798 6.041488 -1.398909 0.000000 0.000000 0.000000 53.818012 -2.972105 -83.179271 69.947680 -58.420499 42.726680 13.271703 2.954710 -9.354562 0.000000 0.000000 0.000000 -7.125000 0.000000 0.000000 -11.868203 39.317780 -1.691376 0.000000 0.000000 0.000000 -43.307756 5.764514 74.821403 -35.468220 -45.142716 -15.144634 19.276566 40.236024 -33.061603 0.000000 0.000000 0.000000 7.125000 0.000000 0.000000 27.559543 -1.534834 32.243887
13.548241 16.837897 -11.431411 -393.641302 -88.689011 743.317364 0.000000 0.000000 0.000000 -11.486995 17.840811 -4.388365 4.973199 13.353500 40.706677 3.141828 -3.395012 -32.774116 0.300406 -3.523948 -9.741034 0.000000 0.000000 0.000000 20.037051 -12.765733 -3.697442 -5.026005 -13.412980 40.934838 -3.560967 4.579693 -34.764997 -2.017675 -8.902405 25.490717 1.656741 -2.937644 -4.335312 1.951232 -4.132184 -7.807239 1.141516 -2.203720 -5.648634 16.056080 8.581281 5.827007 -23.591513 10.440171 -12.403416 -10.368667 5.561895 -2.237653 0.000000 0.000000 0.000000 57.290892 -11.285558 -82.169241 81.453614 -59.720920 52.605586 14.304804 2.352104 -9.833837 0.000000 0.000000 0.000000 -7.125000 0.000000 0.000000 -11.084419 39.881075 -1.417883 0.000000 0.000000 0.000000 -43.149382 5.055912 74.567747 -31.072624 -41.794029 -12.118634 19.279867 41.115450 -33.091814 0.000000 0.000000 0.000000 7.125000 0.000000 0.000000 27.558375 -1.562938 32.256411
13.253524 16.551349 -11.383207 -372.905571 -87.636072 717.398376 0.000000 0.000000 0.000000 -9.572593 18.613885 1.606136 5.478287 13.902978 42.850150 3.509963 -3.704830 -34.664049 0.598290 -4.950822 -13.768555 0.000000 0.000000 0.000000 18.533977 -14.272168 2.503713 -5.409384 -13.830411 42.562474 -4.028838 4.664516 -37.083235 -2.176636 -9.224615 26.500701 1.147210 -2.633906 -4.591345 1.419408 -3.734277 -7.779519 0.853044 -1.987492 -5.476886 15.727341 8.660183 5.698635 -23.443144 10.260290 -13.757214 -10.329310 5.463899 -2.662120 0.000000 0.000000 0.000000 57.765073 -16.153820 -82.412985 84.646434 -59.891375 55.365403 14.373823 3.953737 -9.115847 0.000000 0.000000 0.000000 -7.125000 0.000000 0.000000 -10.882068 39.161649 -1.587547 0.000000 0.000000 0.000000 -40.291381 4.501218 75.017362 -27.393334 -38.551585 -9.743273 17.920662 42.008668 -32.745691 0.000000 0.000000 0.000000 7.125000 0.000000 0.000000 26.949079 -1.157352 31.137345
12.995729 16.249844 -11.355396 -358.217399 -86.630013 699.330868 0.000000 0.000000 0.000000 -8.509690 19.321042 5.110671 6.130949 14.553911 45.504656 3.836549 -3.012079 -36.460433 1.391203 -7.461988 -21.091652 0.000000 0.000000 0.000000 17.025077 -14.959334 5.671825 -6.292485 -14.705835 46.144413 -4.681636 4.242123 -40.218030 -1.990670 -8.846238 25.315823 0.946818 -2.722776 -5.440079 0.690617 -3.885865 -7.807376 0.162112 -2.075396 -5.065892 15.997421 8.596464 6.690238 -23.696508 10.044359 -15.268428 -10.623104 5.406573 -3.272958 0.000000 0.000000 0.000000 55.596015 -13.594566 -83.136916 86.488381 -59.953382 56.959327 15.745291 5.371120 -7.738041 0.000000 0.000000 0.000000 -7.125000 0.000000 0.000000 -9.471741 37.859291 -1.683083 0.000000 0.000000 0.000000 -36.132756 6.710702 74.032354 -28.121044 -39.227450 -10.200139 18.214114 42.409504 -32.183160 0.000000 0.000000 0.000000 7.125000 0.000000 0.000000 27.140130 -0.654633 31.170548
